<svg fill="none" xmlns="http://www.w3.org/2000/svg" viewBox="0 0 56 65"><path fill-rule="evenodd" clip-rule="evenodd" d="M18.45 64.72V52.28h4.17c2.95 0 3.72 2.03 3.72 3.45 0 1.62-1.06 2.54-2.02 2.72.9.2 2.1 1.06 2.1 2.77 0 1.42-.78 3.5-3.71 3.5h-4.26Zm1.59-7.02h2.62c1.59 0 2.1-1.12 2.1-1.97 0-.83-.51-1.99-2.14-1.99h-2.58v3.96Zm0 5.56h2.67c1.6 0 2.13-1.17 2.13-2.03 0-.9-.58-2.06-2.1-2.06h-2.7v4.09Zm8.73 1.46h1.64V52.28h-1.64v12.44ZM38.79 52c3.9 0 6.3 3.13 6.3 6.5 0 3.36-2.4 6.5-6.28 6.5-3.93 0-6.32-3.13-6.32-6.5s2.39-6.5 6.3-6.5Zm0 11.54c2.86 0 4.62-2.45 4.62-5.04 0-2.63-1.76-5.04-4.62-5.04-2.86 0-4.64 2.43-4.64 5.04 0 2.6 1.78 5.04 4.64 5.04ZM54.4 61.9l-5.5-9.6h-1.76v12.43h1.59V55.1l5.5 9.6H56V52.29h-1.59v9.61ZM4.2 52.3 0 64.71h1.68l.62-1.9h4.96l.64 1.9h1.68L5.36 52.28H4.2Zm.59 2.64 1.97 6.41H2.79l2-6.41Zm6.24-2.66v12.44h5.59v-1.46h-4V52.28h-1.59ZM50.2 46l-.14-.04c-.12-.22-.12-.3-.12-.5a4.5 4.5 0 0 0-.12-1.32 18.06 18.06 0 0 1-.25-1.1.75.75 0 0 0-.05-.12c-.05-.1-.08-.22-.1-.33v-.09a.92.92 0 0 0 .01-.37l-.06-.46a3.35 3.35 0 0 1-.05-1.21 4.53 4.53 0 0 1 1.77-2.5c.33-.2.53-.33.55-.55.02-.12-.14-.49-.28-.68a9.1 9.1 0 0 0-.47-.38c.07.05-.04-.01-.04-.01-.34-.44-.7-.85-1.1-1.24-.2-.09-.22-.08-.53.05a2 2 0 0 1-1.4.14c-.18-.04-.34-.1-.5-.17-.18-.06-.34-.12-.5-.15l-.37-.07c-.37-.07-.76-.14-1.16-.26-.81-.24-1.2-.3-1.54.21-.08.13-.12.3-.16.5-.05.2-.1.4-.2.59-.34.57-.76.33-1.02.2a3.25 3.25 0 0 0-.18-.1l-.06-.03c-.27-.14-.36-.18-.6-.16-.15.01-.24.04-.34.07a1.2 1.2 0 0 1-.65.03 3.24 3.24 0 0 1-1.15-.51c-.2-.18-.39-.38-.56-.58l-.02-.02c-.18-.22-.34-.4-.36-.77a1.6 1.6 0 0 1 .07-.52l.05-.23.09-.6c.07-.44.14-.9.15-1.31a3.05 3.05 0 0 0-.77-2.12 5.3 5.3 0 0 0-1.82-1.5c-.48.8-1.13.8-1.94.8h-.2c-.34.01-.68-.02-1-.06a6.3 6.3 0 0 0-1.3-.04l-.26.02-.05-.24a1.63 1.63 0 0 1-.02-.42c.01-.12 0-.25-.03-.37l-.15-.6a5.37 5.37 0 0 0-.46-1.42l-.03-.04-.17.12-.29.14-.26.13c-.1.06-.19.14-.29.23-.2.19-.45.4-.8.46-.2 0-.41-.03-.61-.09-.26 0-.52.03-.77.08l-.31.04c-.14.01-.29.02-.4.05l-.3.09a.15.15 0 0 1-.16-.05.15.15 0 0 1-.01-.17l.16-.27.1-.23c.07-.14.14-.3.25-.44a1 1 0 0 1 .28-.23c.09-.06.12-.08.14-.16.06-.16-.03-.26-.34-.52a4.4 4.4 0 0 1-.22-.19c-.15-.14-.28-.3-.4-.44-.33-.38-.62-.71-1.03-.7-.28.01-.55.15-.66.34-.07.12-.06.26.02.41.02.05.06.1.12.15.08.08.18.19.25.35.05.1.08.2.11.29.03.09.05.15.09.22a.28.28 0 0 1-.02.3l-.01.02a.37.37 0 0 1-.48.11 5.98 5.98 0 0 1-.95-.67l-.47-.35a9.64 9.64 0 0 0-2-1.09l-.24.64a3.6 3.6 0 0 1-.55 1.16l-.21.23c-.18.19-.32.33-.37.58-.02.09-.01.2 0 .33.03.28.06.63-.18.93l-.11.15-.18-.05c-.15-.04-.65-.2-.97-.46a2.25 2.25 0 0 1-.43-.51c-.1-.14-.19-.27-.3-.36-.11-.1-.3-.16-.5-.22a2.28 2.28 0 0 1-.64-.27c-.17-.12-.29-.23-.4-.33a1.5 1.5 0 0 0-.47-.35c-.26-.12-.52-.3-.78-.46-.66-.45-1.13-.73-1.55-.5a3.5 3.5 0 0 1-1.2.44.76.76 0 0 0-.25.07l-.25.1h-.02c-.24.08-.47.16-.78.08l-.06-.01-.04-.04a7.02 7.02 0 0 1-2.68-4.1c-.09-.5-.15-.8-.42-1.22l-.29-.41c-.17-.24-.34-.48-.5-.79a7.49 7.49 0 0 0-.41-.7l-.11-.2.17-.15c.19-.17.5-.24.74-.3l.14-.03.1-.03c.17-.05.4-.12.63-.07 0-.18 0-.35-.03-.52a2.65 2.65 0 0 1-.02-.48c.01-.18 0-.38-.01-.6-.02-.32-.05-.68.04-1.02a1.9 1.9 0 0 1-.6-1.4l.03-.22.22-.02c.14-.02.7-.27.89-.4a5.7 5.7 0 0 0-.33-.9.89.89 0 0 0-.19-.15 1.17 1.17 0 0 1-.39-.4c-.05-.1-.1-.2-.13-.31-.04-.1-.07-.17-.12-.25a.82.82 0 0 0-.15-.16 1.2 1.2 0 0 1-.39-.53c-.04-.09-.07-.17-.13-.24-.25-.34-.65-.5-1.07-.68a3.58 3.58 0 0 1-1.06-.6l-.13-.12.06-.17.11-.3c.15-.35.23-.55.1-.95a5.24 5.24 0 0 0-.24-.51c-.37-.76-.61-1.32-.45-1.7a.7.7 0 0 1 .47-.42l.18-.08a.9.9 0 0 0 .22-.14 1.5 1.5 0 0 1-.15-.95v-.24c0-.1-.01-.24-.04-.38-.07-.51-.17-1.21.34-1.57L5.4 0l.14.07c.17.08.32.1.49.1.18.02.37.04.58.14l.18.1.04.04.08.1.12.16c.1.1.28.18.45.25a4.16 4.16 0 0 1 .37.18c.15.08.27.14.43.3.15.17.25.34.35.5.1.16.19.3.3.43.15.16.21.3.27.42l.09.18c.06.1.14.16.25.23.09.06.2.13.3.24.09.11.13.24.17.34a.5.5 0 0 0 .07.16c.03.04.11.07.2.1.1.05.25.1.37.22l.16.16-.12.19c-.16.23-.42.37-.67.5-.46.24-.53.32-.46.52.02.07.14.23.2.33l.14.2c.1.18.2.23.38.31l.35.2c.24.17.46.38.66.59.2.2.39.38.6.53.53.37.93.82 1.35 1.29l.13.13.21.27c.16.2.28.36.5.43l-.17.52c-.38-.11-.59-.38-.77-.61l-.18-.24-.13-.13c-.4-.45-.77-.87-1.26-1.2-.25-.18-.46-.4-.67-.6-.2-.2-.38-.38-.58-.52l-.29-.16c-.2-.1-.41-.2-.61-.54l-.1-.15a1.94 1.94 0 0 1-.28-.47c-.24-.68.34-.99.73-1.19l.2-.1a.82.82 0 0 1-.3-.21 1 1 0 0 1-.18-.34.6.6 0 0 0-.07-.16 1 1 0 0 0-.2-.15c-.12-.09-.28-.2-.4-.41l-.13-.24a.81.81 0 0 0-.16-.26c-.16-.17-.26-.34-.37-.51a2.56 2.56 0 0 0-.29-.42.75.75 0 0 0-.27-.18 6.51 6.51 0 0 1-.12-.07l-.23-.1c-.21-.1-.46-.21-.62-.37a1.05 1.05 0 0 1-.2-.26C6.3.75 6.17.74 5.99.73A1.7 1.7 0 0 1 5.5.64c-.11.22-.06.61-.01.94.02.16.05.31.05.45l-.01.3a.97.97 0 0 0 0 .38l.07.17c.15.42.13.68-.43.98-.1.06-.2.09-.26.1-.1.05-.1.05-.15.14-.06.18.3.91.45 1.22.11.24.21.44.26.59.2.63.03.98-.14 1.42.22.16.48.27.75.38.47.2.96.4 1.3.86.1.12.15.24.2.35l.07.15c.03.06.1.12.17.18.08.08.18.16.26.28.08.13.12.25.16.35l.1.24c.06.1.13.15.23.22.09.06.2.14.3.27.11.14.49 1.09.46 1.33-.03.34-.74.64-1.13.77.06.3.28.7.49.82l.22.12-.1.23c-.12.28-.1.63-.07.99.01.22.03.46 0 .68l.03.37c.04.42.1.89-.2 1.14l-.16.14-.18-.13c-.1-.07-.24-.03-.46.03a5.48 5.48 0 0 1-.56.15c.1.16.19.31.27.48.14.27.3.48.46.71l.3.44c.33.5.4.87.5 1.43a6.5 6.5 0 0 0 2.42 3.71c.13.02.23 0 .43-.07h.03l.19-.08c.1-.05.18-.08.39-.12.4-.06.68-.19 1.01-.37.75-.41 1.48.08 2.13.52.25.16.48.32.69.41a2 2 0 0 1 .64.46c.1.1.2.18.33.28.12.08.29.13.48.2.24.07.5.15.7.32.16.13.28.3.4.47.1.15.2.29.31.39.14.11.35.2.56.28v-.37a1.65 1.65 0 0 1 0-.5c.08-.4.31-.63.51-.84l.19-.2c.2-.25.33-.62.45-.99.12-.33.23-.67.41-.95l.12-.19.21.08a10.17 10.17 0 0 1 2.83 1.6c.1.1.22.19.33.27a2.29 2.29 0 0 0-.06-.07 1.18 1.18 0 0 1-.2-.27.95.95 0 0 1-.01-.95c.2-.35.64-.6 1.11-.6.68-.03 1.1.45 1.46.88.12.13.24.28.37.4l.2.17c.29.24.69.58.5 1.11a.78.78 0 0 1-.37.46.5.5 0 0 0-.14.1.76.76 0 0 0-.07.12c.07 0 .14 0 .21-.02.28-.06.6-.1.9-.09l.3.05.22.04c.18-.04.33-.17.5-.32.1-.1.22-.2.36-.29.11-.07.23-.12.33-.17l.23-.1.18-.14c.08-.07.2-.16.36-.14.18.03.29.18.41.38.26.43.4 1.05.53 1.6l.14.56c.07.24.06.42.05.59.4-.02.77.02 1.14.06.32.04.62.07.93.06h.2c.85 0 1.23 0 1.58-.72l.1-.21.23.07a5.4 5.4 0 0 1 2.27 1.74c.61.7.94 1.59.91 2.5-.01.46-.08.93-.15 1.38l-.1.6c0 .1-.03.2-.06.29-.03.12-.06.24-.05.34.01.19.07.26.23.45l.02.02c.1.12.32.37.5.52.16.14.63.33.9.39a.6.6 0 0 0 .38-.02c.11-.03.24-.07.44-.1.4-.02.61.08.9.22l.06.03c.08.03.15.07.21.11l.2.1a.45.45 0 0 0 .07-.1c.07-.1.1-.26.14-.43.05-.21.1-.46.24-.67.6-.9 1.46-.65 2.16-.44.37.11.72.17 1.1.24l.38.07c.2.04.4.12.58.19l.43.14c.4.1.63.07 1.07-.11.42-.18.57-.22 1.02-.02l.05.02.03.03c.4.39.76.8 1.1 1.24.1.06.23.17.4.32l.12.1.05.04.14.22c.14.24.3.6.27.87-.04.51-.45.75-.77.95-.13.07-.24.14-.32.22-.5.44-1.1 1.24-1.24 1.93-.06.33 0 .66.05 1.02l.07.47c.02.16.02.33 0 .5l.05.15c.02.05.05.11.07.2.05.19.1.37.13.56l.13.54c0 .02.36 1.55-.05 1.9l-.11.1Z" fill="currentColor"></path></svg>
