<svg xmlns="http://www.w3.org/2000/svg" fill="none" viewBox="0 0 25 38"><path fill="#2AE9AA" d="M12.31 37.946V28.42c0-.02.011-.04.03-.05l12.252-7.068a.055.055 0 00.029-.05v-2.708a.056.056 0 00-.085-.05l-12.14 7.004a.056.056 0 01-.085-.05v-2.71c0-.02.01-.039.028-.049l12.253-7.068a.059.059 0 00.029-.05v-2.708a.058.058 0 00-.085-.05l-12.14 7.003a.056.056 0 01-.086-.049v-2.709c0-.02.011-.039.03-.049l12.252-7.065a.056.056 0 00.029-.05V7.15a.12.12 0 00-.056-.098L12.367.015a.112.112 0 00-.113 0l-2.32 1.339a.056.056 0 000 .098l12.14 7.003a.058.058 0 010 .098l-2.32 1.338a.12.12 0 01-.114 0L7.443 2.856a.12.12 0 00-.12 0L5.01 4.193a.056.056 0 000 .098l12.138 7.004a.056.056 0 010 .099l-2.32 1.338a.12.12 0 01-.12 0L2.519 5.695a.12.12 0 00-.12 0L0 7.083V30.91c0 .02.01.04.029.049l2.348 1.355a.056.056 0 00.085-.05V8.603a.056.056 0 01.085-.049l2.35 1.355c.016.01.027.029.027.05V33.75c0 .02.01.04.028.05L7.3 35.156a.058.058 0 00.087-.05V11.442a.056.056 0 01.085-.05l2.348 1.354c.018.01.029.03.029.05v23.795c0 .02.01.039.027.05l2.355 1.353a.056.056 0 00.08-.049z"/></svg>